<svg width="1540" height="1540" viewBox="0 0 1540 1540" fill="none" xmlns="http://www.w3.org/2000/svg">
<path fill-rule="evenodd" clip-rule="evenodd" d="M279.992 0H419.992V140H279.996V279.996H139.996V139.996H279.992V0ZM0 1260H140V1400H279.992V1260H419.992V1400H279.996V1540H140H139.996H0V1400V1260ZM139.996 1120H279.996V1260H139.996V1120ZM420 280.004H280.004V420.004H420H420.004H559.996H560H699.996V280.004H560H559.996H420.004H420ZM280.004 979.996H420V840H559.996V700.004H699.996V840H839.992V980H699.996V1120H559.996V980H420.004V1120H280.004V979.996ZM699.992 979.996V840.004H560V979.996H699.992ZM420 0H559.996H560H699.996V140H560H559.996H420V0ZM560 1120H420V1260H560V1120ZM700.004 0H840H840.004H980V139.996H1120H1260V279.996H1120H979.996V140H840.004H840H700.004V0ZM840.004 280.004H700.004V420.004H840V560H979.996V699.996H1120V559.996H980V420H840.004V280.004ZM699.992 559.996H839.992V699.996H699.992V559.996ZM840 700.004H980V840.004H840V700.004ZM1120 280.004H1260V420.004H1120V280.004ZM1260 700.004H1120V840V840.004V979.996V980V1120V1260H1260V1120V980V979.996V840.004V840V700.004ZM1400 139.996H1260V279.996H1400V139.996ZM1260 280.004H1400V420V420.004V559.996H1540V699.996H1400V560H1260V420.004V420V280.004ZM1260 1260H1400V1120H1540V1260H1400V1400H1260V1260ZM1400 700.004H1540V840V840.004V979.996V980V1120H1400V980V979.996V840.004V840V700.004Z" fill="#001CE0"/>
</svg>
